# xmcd
#
# Track frame offsets:
#	182
#	12957
#	25802
#	38400
#	51292
#	88307
#	105400
#	119395
#	129432
#	145355
#	157935
#	171150
#	183300
#	207195
#	219992
#	237587
#
# Disc length: 3332 seconds
#
# Revision: 4
# Processed by: cddbd v1.5.1PL2 Copyright (c) Steve Scherf et al.
# Submitted via: audiograbber 1.83.01
#
DISCID=d50d0210
DTITLE=Bobby Bare - The Collection
DYEAR=1993
DGENRE=Country
TTITLE0=Detroit City
TTITLE1=Four Strong Winds
TTITLE2=Green, Green Grass Of Home
TTITLE3=Folsom Prison Blues
TTITLE4=Rosalie's Good Eats Cafe
TTITLE5=Hard Time Hungrys
TTITLE6=Singin' In The Kitchen
TTITLE7=Dropkick Me, Jesus
TTITLE8=Sunday Mornin' Comin' Down
TTITLE9=Lullabys, Legends And Lies
TTITLE10=Marie Laveau
TTITLE11=Daddy What If
TTITLE12=The Winner
TTITLE13=The Mermaid
TTITLE14=Up Against The Wall (Redneck Mother)
TTITLE15=500 Miles Away From Home
EXTD=
EXTT0=
EXTT1=
EXTT2=
EXTT3=
EXTT4=
EXTT5=
EXTT6=
EXTT7=
EXTT8=
EXTT9=
EXTT10=
EXTT11=
EXTT12=
EXTT13=
EXTT14=
EXTT15=
PLAYORDER=
